<svg width="121" height="34" viewBox="0 0 121 34" fill="none" xmlns="http://www.w3.org/2000/svg">
<path d="M30.5682 33.8991C23.6538 34.2133 23.5935 21.3114 22.6576 16.3655C20.4456 4.6499 15.6746 0.0769515 7.33081 0.0331551C6.36961 0.0146031 5.4137 0.178395 4.51471 0.515677C7.63056 -0.626051 13.4046 0.808641 14.6914 8.64669C15.9782 16.4847 9.40629 26.2982 21.3358 32.2817C24.193 33.6857 27.3977 34.2471 30.5682 33.8991V33.8991Z" fill="url(#paint0_linear_1_93)"/>
<path d="M10.3637 21.6072C8.48654 16.8893 11.5558 12.2212 10.9784 6.90291C10.4758 2.27333 5.73453 -0.858873 2.52943 1.69869C-1.43156 4.86034 -0.128791 9.40082 2.27999 12.2015L10.3637 21.6072Z" fill="url(#paint1_linear_1_93)"/>
<path d="M13.6196 0C21.3235 0 25.4942 7.77009 27.4933 15.8173C29.7053 24.7208 35.426 37.6264 42.9605 26.3889C44.7299 23.7624 45.7028 20.6893 45.7644 17.5329C45.7644 17.5329 44.997 21.3508 41.3679 21.3508C38.5258 21.3508 35.5191 20.3993 31.5238 11.1983C27.5285 1.99728 22.0221 0 13.6196 0Z" fill="url(#paint2_linear_1_93)"/>
<path d="M24.1003 0.0406096C27.0751 0.0406096 32.3091 2.75069 35.5569 9.72867C38.8047 16.7067 41.9412 16.021 43.2806 15.1896C44.848 14.2171 45.2149 10.4672 42.3409 6.76109C38.579 1.91026 34.277 -0.281068 24.1003 0.0406096Z" fill="url(#paint3_linear_1_93)"/>
<path d="M104.245 13.224H108.631C108.884 13.224 109.127 13.1245 109.305 12.9475C109.484 12.7705 109.585 12.5304 109.585 12.2801C109.585 12.0297 109.484 11.7897 109.305 11.6126C109.127 11.4356 108.884 11.3362 108.631 11.3362H104.245C103.133 11.3374 102.067 11.7753 101.28 12.5539C100.494 13.3325 100.052 14.3882 100.05 15.4893V18.5097C100.052 19.6108 100.494 20.6665 101.28 21.4451C102.067 22.2237 103.133 22.6616 104.245 22.6628H108.631C108.884 22.6628 109.127 22.5634 109.305 22.3864C109.484 22.2094 109.585 21.9693 109.585 21.719C109.585 21.4686 109.484 21.2285 109.305 21.0515C109.127 20.8745 108.884 20.7751 108.631 20.7751H104.245C103.639 20.7751 103.057 20.5364 102.627 20.1116C102.198 19.6867 101.957 19.1105 101.957 18.5097V17.9434H106.724C106.977 17.9434 107.22 17.844 107.399 17.6669C107.577 17.4899 107.678 17.2498 107.678 16.9995C107.678 16.7492 107.577 16.5091 107.399 16.3321C107.22 16.1551 106.977 16.0556 106.724 16.0556H101.957V15.4893C101.957 14.8885 102.198 14.3123 102.627 13.8875C103.057 13.4626 103.639 13.224 104.245 13.224Z" fill="black"/>
<path d="M120.047 20.7751H115.661C115.054 20.7751 114.472 20.5364 114.043 20.1116C113.614 19.6867 113.372 19.1105 113.372 18.5097V17.9434H118.14C118.393 17.9434 118.635 17.844 118.814 17.6669C118.993 17.4899 119.093 17.2498 119.093 16.9995C119.093 16.7492 118.993 16.5091 118.814 16.3321C118.635 16.1551 118.393 16.0556 118.14 16.0556H113.372V15.4893C113.372 14.8885 113.614 14.3123 114.043 13.8875C114.472 13.4626 115.054 13.224 115.661 13.224H120.047C120.299 13.224 120.542 13.1245 120.721 12.9475C120.9 12.7705 121 12.5304 121 12.2801C121 12.0297 120.9 11.7897 120.721 11.6126C120.542 11.4356 120.299 11.3362 120.047 11.3362H115.661C114.548 11.3374 113.482 11.7753 112.696 12.5539C111.909 13.3325 111.467 14.3882 111.466 15.4893V18.5097C111.467 19.6108 111.909 20.6665 112.696 21.4451C113.482 22.2237 114.548 22.6616 115.661 22.6628H120.047C120.299 22.6628 120.542 22.5634 120.721 22.3864C120.9 22.2094 121 21.9693 121 21.719C121 21.4686 120.9 21.2285 120.721 21.0515C120.542 20.8745 120.299 20.7751 120.047 20.7751V20.7751Z" fill="black"/>
<path d="M69.539 11.3362C68.4075 11.3362 67.3015 11.6683 66.3607 12.2906C65.42 12.9129 64.6867 13.7974 64.2537 14.8323C63.8208 15.8671 63.7075 17.0058 63.9282 18.1044C64.149 19.2029 64.6938 20.2121 65.4939 21.0041C66.2939 21.7961 67.3132 22.3355 68.4229 22.554C69.5326 22.7726 70.6829 22.6604 71.7282 22.2318C72.7735 21.8031 73.6669 21.0772 74.2955 20.1459C74.9241 19.2146 75.2596 18.1196 75.2596 16.9995C75.2578 15.4981 74.6545 14.0586 73.5821 12.9969C72.5096 11.9352 71.0556 11.338 69.539 11.3362V11.3362ZM69.539 20.7751C68.7847 20.7751 68.0473 20.5536 67.4201 20.1388C66.793 19.7239 66.3042 19.1343 66.0155 18.4444C65.7269 17.7545 65.6513 16.9953 65.7985 16.2629C65.9456 15.5305 66.3089 14.8578 66.8422 14.3298C67.3756 13.8018 68.0551 13.4422 68.7949 13.2965C69.5347 13.1508 70.3015 13.2256 70.9984 13.5114C71.6953 13.7971 72.291 14.281 72.71 14.9019C73.1291 15.5228 73.3528 16.2528 73.3528 16.9995C73.3515 18.0005 72.9493 18.9601 72.2344 19.6679C71.5194 20.3757 70.5501 20.7739 69.539 20.7751V20.7751Z" fill="black"/>
<path d="M61.9119 11.3362H54.2844C54.0315 11.3362 53.789 11.4356 53.6102 11.6126C53.4314 11.7897 53.3309 12.0297 53.3309 12.2801C53.3309 12.5304 53.4314 12.7705 53.6102 12.9475C53.789 13.1245 54.0315 13.224 54.2844 13.224H57.1447V21.719C57.1447 21.9693 57.2451 22.2094 57.4239 22.3864C57.6027 22.5634 57.8453 22.6628 58.0981 22.6628C58.351 22.6628 58.5935 22.5634 58.7723 22.3864C58.9511 22.2094 59.0516 21.9693 59.0516 21.719V13.224H61.9119C62.1648 13.224 62.4073 13.1245 62.5861 12.9475C62.7649 12.7705 62.8654 12.5304 62.8654 12.2801C62.8654 12.0297 62.7649 11.7897 62.5861 11.6126C62.4073 11.4356 62.1648 11.3362 61.9119 11.3362V11.3362Z" fill="black"/>
<path d="M85.747 11.3362H81.3612C80.2489 11.3374 79.1826 11.7753 78.3961 12.5539C77.6096 13.3325 77.1672 14.3882 77.166 15.4893V21.719C77.166 21.9693 77.2664 22.2094 77.4453 22.3864C77.6241 22.5634 77.8666 22.6628 78.1195 22.6628C78.3723 22.6628 78.6148 22.5634 78.7936 22.3864C78.9724 22.2094 79.0729 21.9693 79.0729 21.719V17.9434H83.8401C84.093 17.9434 84.3355 17.844 84.5143 17.6669C84.6931 17.4899 84.7936 17.2498 84.7936 16.9995C84.7936 16.7492 84.6931 16.5091 84.5143 16.3321C84.3355 16.1551 84.093 16.0556 83.8401 16.0556H79.0729V15.4893C79.0729 14.8885 79.314 14.3123 79.7431 13.8875C80.1722 13.4626 80.7543 13.224 81.3612 13.224H85.747C85.9999 13.224 86.2424 13.1245 86.4212 12.9475C86.6 12.7705 86.7005 12.5304 86.7005 12.2801C86.7005 12.0297 86.6 11.7897 86.4212 11.6126C86.2424 11.4356 85.9999 11.3362 85.747 11.3362V11.3362Z" fill="black"/>
<path d="M97.189 11.3362H92.8032C91.6909 11.3374 90.6246 11.7753 89.8381 12.5539C89.0516 13.3325 88.6092 14.3882 88.608 15.4893V21.719C88.608 21.9693 88.7085 22.2094 88.8873 22.3864C89.0661 22.5634 89.3086 22.6628 89.5615 22.6628C89.8143 22.6628 90.0568 22.5634 90.2356 22.3864C90.4144 22.2094 90.5149 21.9693 90.5149 21.719V17.9434H95.2821C95.535 17.9434 95.7775 17.844 95.9563 17.6669C96.1351 17.4899 96.2356 17.2498 96.2356 16.9995C96.2356 16.7492 96.1351 16.5091 95.9563 16.3321C95.7775 16.1551 95.535 16.0556 95.2821 16.0556H90.5149V15.4893C90.5149 14.8885 90.756 14.3123 91.1851 13.8875C91.6143 13.4626 92.1963 13.224 92.8032 13.224H97.189C97.4419 13.224 97.6844 13.1245 97.8632 12.9475C98.042 12.7705 98.1425 12.5304 98.1425 12.2801C98.1425 12.0297 98.042 11.7897 97.8632 11.6126C97.6844 11.4356 97.4419 11.3362 97.189 11.3362V11.3362Z" fill="black"/>
<defs>
<linearGradient id="paint0_linear_1_93" x1="9.77751" y1="20.786" x2="43.5233" y2="11.6347" gradientUnits="userSpaceOnUse">
<stop stop-color="#9600AD"/>
<stop offset="0.5" stop-color="#EB008B"/>
<stop offset="1" stop-color="#FF6087"/>
</linearGradient>
<linearGradient id="paint1_linear_1_93" x1="5.62547" y1="11.965" x2="39.2037" y2="7.60631" gradientUnits="userSpaceOnUse">
<stop stop-color="#9600AD"/>
<stop offset="0.5" stop-color="#EB008B"/>
<stop offset="1" stop-color="#FF6087"/>
</linearGradient>
<linearGradient id="paint2_linear_1_93" x1="10.5337" y1="22.4299" x2="42.1966" y2="6.48434" gradientUnits="userSpaceOnUse">
<stop stop-color="#9600AD"/>
<stop offset="0.5" stop-color="#EB008B"/>
<stop offset="1" stop-color="#FF6087"/>
</linearGradient>
<linearGradient id="paint3_linear_1_93" x1="8.95581" y1="19.0226" x2="36.2107" y2="-2.18052" gradientUnits="userSpaceOnUse">
<stop stop-color="#9600AD"/>
<stop offset="0.5" stop-color="#EB008B"/>
<stop offset="1" stop-color="#FF6087"/>
</linearGradient>
</defs>
</svg>
