<svg width="307" height="392" viewBox="0 0 307 392" fill="none" xmlns="http://www.w3.org/2000/svg">
<g opacity="0.6">
<mask id="mask0_1_65" style="mask-type:alpha" maskUnits="userSpaceOnUse" x="55" y="55" width="281" height="281">
<circle cx="195.685" cy="195.685" r="139.857" transform="rotate(-36.639 195.685 195.685)" fill="#D9D9D9"/>
</mask>
<g mask="url(#mask0_1_65)">
<rect x="-15.9237" y="178.768" width="347.585" height="5.14179" transform="rotate(-36.639 -15.9237 178.768)" fill="#FF3988"/>
<rect x="-6.10459" y="191.97" width="347.585" height="5.14179" transform="rotate(-36.639 -6.10459 191.97)" fill="#FF3988"/>
<rect x="3.7145" y="205.173" width="347.585" height="5.14179" transform="rotate(-36.639 3.7145 205.173)" fill="#FF3988"/>
<rect x="13.5336" y="218.375" width="347.585" height="5.14179" transform="rotate(-36.639 13.5336 218.375)" fill="#FF3988"/>
<rect x="23.3528" y="231.578" width="347.585" height="5.14179" transform="rotate(-36.639 23.3528 231.578)" fill="#FF3988"/>
<rect x="33.1718" y="244.781" width="347.585" height="5.14179" transform="rotate(-36.639 33.1718 244.781)" fill="#FF3988"/>
<rect x="42.991" y="257.983" width="347.585" height="5.14179" transform="rotate(-36.639 42.991 257.983)" fill="#FF3988"/>
<rect x="52.8101" y="271.186" width="347.585" height="5.14179" transform="rotate(-36.639 52.8101 271.186)" fill="#FF3988"/>
<rect x="62.6292" y="284.389" width="347.585" height="5.14179" transform="rotate(-36.639 62.6292 284.389)" fill="#FF3988"/>
<rect x="72.4483" y="297.591" width="347.585" height="5.14179" transform="rotate(-36.639 72.4483 297.591)" fill="#FF3988"/>
<rect x="82.2674" y="310.794" width="347.585" height="5.14179" transform="rotate(-36.639 82.2674 310.794)" fill="#FF3988"/>
<rect x="92.0865" y="323.997" width="347.585" height="5.14179" transform="rotate(-36.639 92.0865 323.997)" fill="#FF3988"/>
<rect x="101.906" y="337.199" width="347.585" height="5.14179" transform="rotate(-36.639 101.906 337.199)" fill="#FF3988"/>
<rect x="111.725" y="350.402" width="347.585" height="5.14179" transform="rotate(-36.639 111.725 350.402)" fill="#FF3988"/>
<rect x="121.544" y="363.605" width="347.585" height="5.14179" transform="rotate(-36.639 121.544 363.605)" fill="#FF3988"/>
<rect x="131.363" y="376.807" width="347.585" height="5.14179" transform="rotate(-36.639 131.363 376.807)" fill="#FF3988"/>
<rect x="141.182" y="390.01" width="347.585" height="5.14179" transform="rotate(-36.639 141.182 390.01)" fill="#FF3988"/>
<rect x="151.001" y="403.212" width="347.585" height="5.14179" transform="rotate(-36.639 151.001 403.212)" fill="#FF3988"/>
<rect x="160.82" y="416.415" width="347.585" height="5.14179" transform="rotate(-36.639 160.82 416.415)" fill="#FF3988"/>
</g>
</g>
</svg>
